_________________________  Visit us at _________________________
  
http://p2pdl.com  ____________________________  http://p2pdl.com

 
http://www.shotpix.com/images/25622624864064554472.jpg

The Impossible 2012 BRRip 720p x264 AAC - PRiSTiNE [P2PDL]
				
Genre: Drama | Thriller
An account of a family caught, with tens of thousands of strangers, 
in the mayhem of one of the worst natural catastrophes of our time.
Director: Juan Antonio Bayona
Stars:  Naomi Watts, Ewan McGregor, Tom Holland
Rated: PG 13

Info:  
http://www.imdb.com/title/tt1649419/
 
http://www.rottentomatoes.com/m/the_impossible_2012/


General
Complete name                  : The Impossible 2012 BRRip 720p x264 AAC - PRiSTiNE [P2PDL].mp4
Format                         : MPEG-4
Format profile                 : Base Media / Version 2
Codec ID                       : mp42
File size                      : 609 MiB
Duration                       : 1h 53mn
Overall bit rate mode          : Variable
Overall bit rate               : 750 Kbps

Source                         : 720p Bluray PHD (Thanks)

Video
Format                         : AVC
Format/Info                    : Advanced Video Codec
Format profile                 : High@L4.1
Bit rate                       : 665 Kbps
Width                          : 1 280 pixels
Height                         : 542 pixels
Display aspect ratio           : 2.35:1
Frame rate mode                : Variable
Frame rate                     : 24.000 fps
Stream size                    : 540 MiB (89%)
Writing library                : x264 core 129

Audio
Format                         : AAC
Bit rate mode                  : Variable
Bit rate                       : 79.8 Kbps
Channel(s)                     : 2 channels
Channel positions              : Front: L R
Sampling rate                  : 48.0 KHz
Stream size                    : 64.8 MiB (11%)
Language                       : English

Subtitle                       : Yes ( English)


Screens:
 
http://www.shotpix.com/images/50014419246184724836.jpg 
http://www.shotpix.com/images/05739599719714305301.jpg 
http://www.shotpix.com/images/08876811780179858646.jpg 
http://www.shotpix.com/images/10343512125620309481.jpg 
http://www.shotpix.com/images/20523324211139943715.jpg

Thumbs:
 
http://www.shotpix.com/images/52953080917474685947.jpg

----------------------------------------------------------------------------------------------------


Recommend to you to use latest version of VLC player. Install K-Lite Codec Pack or shark007 codecs
in case of any kind of problem in playback (For non-VLC Media Player users). Alternatively, install
Core AVC codecs, the fastest decoder that there is coupled with Community Center Codec Pack and play
on Windows Media Player Classic. Check sample to be sure.
Enjoy!

Greets to: VYTO, a2zRG, MusiK_KinG, Neon, Kuroyukihime, TorDigger, Ash968, StyLishSaLH and staff members at
ExtraTorrent, TPB, H33T, KAT, 1337x, PublicHD, Ahashare, BTScene, SilverTorrent, LimeTorrents, TorrentMafia,
P2PDL, and all others.

Encoder Notes: Looking For Early Access To Anything You Can Provide DVDScr, R5, DVDR, BluRay, Direct
Audio, Early Music Releases, Seedboxes, Dedicated Servers anything u can provide, Advance / Promo CDs/
DVDs. If You Got anything to offer contact me at "prg@hush.com".